<!--?xml version="1.0" encoding="utf-8"?-->
<!-- Generator: Adobe Illustrator 18.1.1, SVG Export Plug-In . SVG Version: 6.00 Build 0)  -->

<svg version="1.1" id="_x32_" xmlns="http://www.w3.org/2000/svg" xmlns:xlink="http://www.w3.org/1999/xlink" x="0px" y="0px" viewBox="0 0 512 512" style="width: 256px; height: 256px; opacity: 1;" xml:space="preserve">
<style type="text/css">
	.st0{fill:#4B4B4B;}
</style>
<g>
	<polygon class="st0" points="367.375,183.607 312.486,238.495 257.592,183.607 240.087,201.105 294.982,256 240.087,310.894 
		257.592,328.393 312.486,273.498 367.375,328.393 384.88,310.894 329.985,256 384.88,201.105 	" style="fill: rgb(75, 75, 75);"></polygon>
	<path class="st0" d="M448.376,60.557h-251.76c-23.23,0-45.327,10.07-60.573,27.608L7.448,236.082C2.5,241.76-0.007,248.92,0,256
		c-0.007,7.08,2.5,14.234,7.448,19.918l128.596,147.931c15.252,17.532,37.342,27.594,60.573,27.594h251.76
		c35.144-0.014,63.617-28.48,63.624-63.624V124.187C511.993,89.036,483.52,60.563,448.376,60.557z M484.539,387.819
		c-0.007,10.03-4.03,18.98-10.593,25.57c-6.591,6.564-15.541,10.579-25.57,10.593h-251.76c-15.286,0-29.82-6.624-39.85-18.155
		L28.178,257.904c-0.496-0.577-0.711-1.2-0.718-1.904c0.006-0.704,0.221-1.327,0.71-1.891l128.602-147.923
		c10.03-11.545,24.564-18.168,39.844-18.168h251.76c10.03,0.007,18.98,4.022,25.57,10.593c6.563,6.583,10.586,15.54,10.593,25.576
		V387.819z" style="fill: rgb(75, 75, 75);"></path>
</g>
</svg>
