<?xml version="1.0" encoding="iso-8859-1"?>
<!-- Generator: Adobe Illustrator 16.0.0, SVG Export Plug-In . SVG Version: 6.00 Build 0)  -->
<!DOCTYPE svg PUBLIC "-//W3C//DTD SVG 1.1//EN" "http://www.w3.org/Graphics/SVG/1.1/DTD/svg11.dtd">
<svg version="1.1" id="Capa_1" xmlns="http://www.w3.org/2000/svg" xmlns:xlink="http://www.w3.org/1999/xlink" x="0px" y="0px"
	 width="612px" height="612px" viewBox="0 0 612 612" style="enable-background:new 0 0 612 612;" xml:space="preserve">
<g>
	<g id="Rectangle_9">
		<g>
			<path d="M510,270.3c-5.365,0-15.208-0.816-20.4,0c-4.539-80.366-65.474-142.8-145.869-142.8
				c-73.399,0-134.498,53.142-148.043,123.542c-20.002-13.597-44.054-21.542-69.931-21.542C56.304,229.5,0,286.579,0,357
				s56.304,127.5,125.756,127.5c2.326,0,4.559-0.337,6.844-0.469v0.469h367.2v-0.551c2.468,0.173,4.886,0.551,7.405,0.551
				C565.08,484.5,612,436.927,612,378.247S567.875,270.3,510,270.3z M503.013,463.906L499.8,464.1H143.004c0,0-5.273,0-20.604,0
				c-55.559,0-102-45.665-102-102c0-56.334,46.441-112.2,102-112.2c35.557,0,91.8,30.6,91.8,30.6
				c0.704-72.185,61.251-132.6,132.6-132.6c71.768,0,120.86,64.087,120.86,136.853c0,2.968-0.245,5.865-0.439,8.772
				c0.511-0.163,1-0.326,1.479-0.49c17.636-5.794,28.101-4.039,34.312-4.039c46.298,0,88.587,36.363,88.587,83.303
				C591.6,418.159,548.179,461.896,503.013,463.906z"/>
		</g>
	</g>
</g>
<g>
</g>
<g>
</g>
<g>
</g>
<g>
</g>
<g>
</g>
<g>
</g>
<g>
</g>
<g>
</g>
<g>
</g>
<g>
</g>
<g>
</g>
<g>
</g>
<g>
</g>
<g>
</g>
<g>
</g>
</svg>
