<svg xmlns="http://www.w3.org/2000/svg" viewBox="-19905.148 -22924.145 274.246 55.389"><g transform="translate(-19963 -23508)"><g transform="translate(57.851 583.954)"><g transform="translate(117.669 46.516)"><path d="M288.189,118.515v3.731H287V113.8h3.2a2.46,2.46,0,0,1,1.763.574,2.394,2.394,0,0,1,0,3.608,2.46,2.46,0,0,1-1.763.574h-2.009Zm1.968-1.148a1.472,1.472,0,0,0,1.107-.369,1.189,1.189,0,0,0,0-1.64,1.327,1.327,0,0,0-1.107-.369H288.23v2.419h1.927Z" transform="translate(-287 -113.718)"/><path d="M310.7,120.073h-3.567l-.9,2.173H305l3.526-8.446h.861l3.526,8.446h-1.271Zm-3.075-1.148h2.624l-1.312-3.157Z" transform="translate(-297.62 -113.718)"/><path d="M333.489,118.269v3.977H332.3V113.8h2.952a2.307,2.307,0,0,1,1.64.492,2.218,2.218,0,0,1,0,3.444,2.192,2.192,0,0,1-.984.451l3.034,4.059h-1.476l-2.993-3.977Zm1.722-1.148a1.327,1.327,0,0,0,1.025-.328,1.089,1.089,0,0,0,0-1.558,1.327,1.327,0,0,0-1.025-.328H333.53v2.173h1.681Z" transform="translate(-313.727 -113.718)"/><path d="M356.5,113.8h1.23v8.446H356.5Z" transform="translate(-328.005 -113.718)"/><path d="M369.12,120.037a2.659,2.659,0,0,0,2.05,1.107,1.356,1.356,0,0,0,1.476-1.271c0-1.312-1.8-1.435-2.911-2.173a2.137,2.137,0,0,1-1.066-1.845,2.415,2.415,0,0,1,2.583-2.255,3.394,3.394,0,0,1,2.255.861l-.7.9a2.413,2.413,0,0,0-1.517-.574,1.263,1.263,0,0,0-1.394,1.148c0,1.066,1.8,1.312,2.87,2.05a2.238,2.238,0,0,1,1.107,1.927,2.458,2.458,0,0,1-2.624,2.46,3.688,3.688,0,0,1-2.952-1.435Z" transform="translate(-334.967 -113.6)"/></g><g transform="translate(0 -0.1)"><path d="M204.872,21.6c-5.658,0-11.972,5.289-11.972,12.382a12.174,12.174,0,0,0,11.972,12.341c6.4,0,11.972-5.781,11.972-12.341A12.365,12.365,0,0,0,204.872,21.6Zm0,23.575c-5.33,0-7.5-3.239-7.5-11.193,0-4.8.779-11.234,7.5-11.234,3.239,0,7.5,1.148,7.5,11.234C212.375,41.936,210.2,45.175,204.872,45.175Z" transform="translate(-113.812 -12.703)"/><path d="M10.373,39.733,4.346,22.8H0V46.416H1.107V25.506L8.856,47.072,16.646,25.3V46.416h3.977V22.8H16.4Z" transform="translate(0 -13.411)"/><path d="M71.8,21.5h-1.23L61.1,45.69h1.189l3.69-9.43h7.38l3.731,9.43h4.223L71.842,21.664ZM66.43,35.194l3.239-8.282,3.239,8.282Z" transform="translate(-36.049 -12.644)"/><rect width="3.977" height="23.616" transform="translate(49.363 9.389)"/><path d="M355.89,22.8h-1.517l-10.5,10.66V22.8H339.9V46.416h3.977V34.772l10.291,11.562.082.082h5.289L346.624,32.271Z" transform="translate(-200.543 -13.411)"/><rect width="3.977" height="23.616" transform="translate(161.579 9.389)"/><path d="M412.4,23.925h8.528v22.55H424.9V23.925h8.528V22.9H412.4Z" transform="translate(-243.318 -13.47)"/><path d="M643.943,45.35H630.536V34.321H638V33.255h-7.462l.041-9.389h12.095V22.8H626.6V46.416h17.343V45.35Z" transform="translate(-369.697 -13.411)"/><path d="M155.607,32.311c-1.066-.41-3.977-1.189-5.658-1.763-1.64-.574-4.592-1.271-4.592-4.141,0-2.378,1.968-4.141,5.289-4.141a6.251,6.251,0,0,1,6.027,5.986h.984c0-1.64-1.517-7.052-7.093-7.052-4.264,0-7.667,2.706-7.667,7.093,0,3.444,2.173,4.756,5.7,5.986,1.681.574,2.911.861,3.854,1.148,2.5.779,4.264,2.3,4.264,4.51,0,3.2-2.665,4.92-5.617,4.92-5.576,0-7.3-3.526-7.913-7.011H142.2c.2,2.5,1.681,8.077,8.815,8.077,5,0,8.815-2.911,8.815-7.913C159.912,35.222,158.354,33.336,155.607,32.311Z" transform="translate(-83.899 -12.467)"/><path d="M478.507,32.311c-1.066-.41-3.977-1.189-5.658-1.763-1.64-.574-4.592-1.271-4.592-4.141,0-2.378,1.968-4.141,5.289-4.141a6.251,6.251,0,0,1,6.027,5.986h.984c0-1.64-1.517-7.052-7.093-7.052-4.264,0-7.667,2.706-7.667,7.093,0,3.444,2.173,4.756,5.7,5.986,1.681.574,2.911.861,3.854,1.148,2.5.779,4.264,2.3,4.264,4.51,0,3.2-2.665,4.92-5.617,4.92-5.576,0-7.3-3.526-7.913-7.011H465.1c.205,2.5,1.681,8.077,8.815,8.077,5,0,8.815-2.911,8.815-7.913C482.853,35.222,481.295,33.336,478.507,32.311Z" transform="translate(-274.411 -12.467)"/><path d="M648.345,2.36a1.587,1.587,0,0,0,.738-1.107,1.272,1.272,0,0,0-.246-.943,1.154,1.154,0,0,0-.861-.41c-.656,0-.943.287-1.763,1.271L642.4,5.8l.492.492Z" transform="translate(-379.019 0.1)"/><path d="M588.668,39.633,578.3,22.864l-.082-.164H574.4V46.357h1.107V25.734l13.038,20.91h1.189V22.7h-1.066Z" transform="translate(-338.899 -13.352)"/><path d="M277.675,46.644V22.7h-1.107V39.633L266.195,22.864l-.082-.164H262.3V46.357h1.107V25.734l13.079,20.91Z" transform="translate(-154.758 -13.352)"/><path d="M534.795,39.223c-.041,3.485-2.378,6.519-6.806,6.519-3.854,0-5.494-2.173-5.494-6.888V22.7H518.6V38.813c0,5.248,3.239,7.995,9.348,7.995,4.8,0,7.995-3.075,7.995-7.626V22.7h-1.148Z" transform="translate(-305.976 -13.352)"/></g></g></g></svg>